<mxfile host="app.diagrams.net" agent="Mozilla/5.0 (Windows NT 10.0; Win64; x64) AppleWebKit/537.36 (KHTML, like Gecko) Chrome/134.0.0.0 Safari/537.36 OPR/119.0.0.0 (Edition std-2)" version="27.1.6">
  <diagram name="Página-1" id="9vREBXogpgw-cOhk3eHp">
    <mxGraphModel dx="2806" dy="2249" grid="1" gridSize="10" guides="1" tooltips="1" connect="1" arrows="1" fold="1" page="1" pageScale="1" pageWidth="827" pageHeight="1169" math="0" shadow="0">
      <root>
        <mxCell id="0" />
        <mxCell id="1" parent="0" />
        <mxCell id="1xZOdAHlnj8blG5HcDeI-1" value="" style="rounded=0;whiteSpace=wrap;html=1;" parent="1" vertex="1">
          <mxGeometry x="-715" y="150" width="825" height="60" as="geometry" />
        </mxCell>
        <mxCell id="1xZOdAHlnj8blG5HcDeI-4" value="&lt;font face=&quot;Verdana&quot; style=&quot;font-size: 24px;&quot;&gt;Aluno&lt;/font&gt;" style="text;html=1;align=center;verticalAlign=middle;whiteSpace=wrap;rounded=0;" parent="1" vertex="1">
          <mxGeometry x="-705" y="120" width="60" height="30" as="geometry" />
        </mxCell>
        <mxCell id="1xZOdAHlnj8blG5HcDeI-5" value="&lt;font face=&quot;Verdana&quot; style=&quot;font-size: 24px;&quot;&gt;&lt;u&gt;cpf&lt;/u&gt;&lt;/font&gt;" style="text;html=1;align=center;verticalAlign=middle;whiteSpace=wrap;rounded=0;" parent="1" vertex="1">
          <mxGeometry x="-730" y="165" width="100" height="30" as="geometry" />
        </mxCell>
        <mxCell id="1xZOdAHlnj8blG5HcDeI-6" value="&lt;font face=&quot;Verdana&quot; style=&quot;font-size: 24px;&quot;&gt;nome&lt;/font&gt;" style="text;html=1;align=center;verticalAlign=middle;whiteSpace=wrap;rounded=0;" parent="1" vertex="1">
          <mxGeometry x="-640" y="165" width="100" height="30" as="geometry" />
        </mxCell>
        <mxCell id="1xZOdAHlnj8blG5HcDeI-7" value="&lt;font face=&quot;Verdana&quot; style=&quot;font-size: 24px;&quot;&gt;d&lt;/font&gt;&lt;span style=&quot;font-size: 24px; font-family: Verdana; background-color: initial;&quot;&gt;ata_nasc&lt;/span&gt;" style="text;html=1;align=center;verticalAlign=middle;whiteSpace=wrap;rounded=0;" parent="1" vertex="1">
          <mxGeometry x="-343" y="165" width="100" height="30" as="geometry" />
        </mxCell>
        <mxCell id="1xZOdAHlnj8blG5HcDeI-8" value="&lt;font face=&quot;Verdana&quot; style=&quot;font-size: 24px;&quot;&gt;plano&lt;/font&gt;" style="text;html=1;align=center;verticalAlign=middle;whiteSpace=wrap;rounded=0;" parent="1" vertex="1">
          <mxGeometry x="-228.5" y="165" width="100" height="30" as="geometry" />
        </mxCell>
        <mxCell id="1xZOdAHlnj8blG5HcDeI-19" value="" style="line;strokeWidth=2;direction=south;html=1;" parent="1" vertex="1">
          <mxGeometry x="-655" y="150" width="10" height="60" as="geometry" />
        </mxCell>
        <mxCell id="1xZOdAHlnj8blG5HcDeI-20" value="" style="line;strokeWidth=2;direction=south;html=1;" parent="1" vertex="1">
          <mxGeometry x="-550" y="150" width="10" height="60" as="geometry" />
        </mxCell>
        <mxCell id="1xZOdAHlnj8blG5HcDeI-25" value="" style="line;strokeWidth=2;direction=south;html=1;" parent="1" vertex="1">
          <mxGeometry x="-465" y="150" width="10" height="60" as="geometry" />
        </mxCell>
        <mxCell id="1xZOdAHlnj8blG5HcDeI-29" value="" style="rounded=0;whiteSpace=wrap;html=1;" parent="1" vertex="1">
          <mxGeometry x="430" y="270" width="880" height="60" as="geometry" />
        </mxCell>
        <mxCell id="1xZOdAHlnj8blG5HcDeI-30" value="&lt;font face=&quot;Verdana&quot; style=&quot;font-size: 24px;&quot;&gt;Curso&lt;/font&gt;" style="text;html=1;align=center;verticalAlign=middle;whiteSpace=wrap;rounded=0;" parent="1" vertex="1">
          <mxGeometry x="440" y="240" width="60" height="30" as="geometry" />
        </mxCell>
        <mxCell id="1xZOdAHlnj8blG5HcDeI-31" value="&lt;font face=&quot;Verdana&quot; style=&quot;font-size: 24px;&quot;&gt;&lt;u&gt;nome&lt;/u&gt;&lt;/font&gt;" style="text;html=1;align=center;verticalAlign=middle;whiteSpace=wrap;rounded=0;" parent="1" vertex="1">
          <mxGeometry x="430" y="285" width="100" height="30" as="geometry" />
        </mxCell>
        <mxCell id="1xZOdAHlnj8blG5HcDeI-32" value="&lt;font face=&quot;Verdana&quot; style=&quot;font-size: 24px;&quot;&gt;descrição&lt;/font&gt;" style="text;html=1;align=center;verticalAlign=middle;whiteSpace=wrap;rounded=0;" parent="1" vertex="1">
          <mxGeometry x="540" y="285" width="100" height="30" as="geometry" />
        </mxCell>
        <mxCell id="1xZOdAHlnj8blG5HcDeI-33" value="&lt;font face=&quot;Verdana&quot; style=&quot;font-size: 24px;&quot;&gt;duração&lt;/font&gt;" style="text;html=1;align=center;verticalAlign=middle;whiteSpace=wrap;rounded=0;" parent="1" vertex="1">
          <mxGeometry x="660" y="285" width="100" height="30" as="geometry" />
        </mxCell>
        <mxCell id="1xZOdAHlnj8blG5HcDeI-34" value="&lt;font face=&quot;Verdana&quot; style=&quot;font-size: 24px;&quot;&gt;nível&lt;/font&gt;" style="text;html=1;align=center;verticalAlign=middle;whiteSpace=wrap;rounded=0;" parent="1" vertex="1">
          <mxGeometry x="750" y="285" width="100" height="30" as="geometry" />
        </mxCell>
        <mxCell id="1xZOdAHlnj8blG5HcDeI-35" value="&lt;font face=&quot;Verdana&quot; style=&quot;font-size: 24px;&quot;&gt;data_lançamento&lt;/font&gt;" style="text;html=1;align=center;verticalAlign=middle;whiteSpace=wrap;rounded=0;" parent="1" vertex="1">
          <mxGeometry x="900" y="285" width="100" height="30" as="geometry" />
        </mxCell>
        <mxCell id="1xZOdAHlnj8blG5HcDeI-36" value="" style="line;strokeWidth=2;direction=south;html=1;" parent="1" vertex="1">
          <mxGeometry x="520" y="270" width="10" height="60" as="geometry" />
        </mxCell>
        <mxCell id="1xZOdAHlnj8blG5HcDeI-37" value="" style="line;strokeWidth=2;direction=south;html=1;" parent="1" vertex="1">
          <mxGeometry x="650" y="270" width="10" height="60" as="geometry" />
        </mxCell>
        <mxCell id="1xZOdAHlnj8blG5HcDeI-38" value="" style="line;strokeWidth=2;direction=south;html=1;" parent="1" vertex="1">
          <mxGeometry x="760" y="270" width="10" height="60" as="geometry" />
        </mxCell>
        <mxCell id="1xZOdAHlnj8blG5HcDeI-39" value="" style="line;strokeWidth=2;direction=south;html=1;" parent="1" vertex="1">
          <mxGeometry x="830" y="270" width="10" height="60" as="geometry" />
        </mxCell>
        <mxCell id="1xZOdAHlnj8blG5HcDeI-42" value="" style="rounded=0;whiteSpace=wrap;html=1;" parent="1" vertex="1">
          <mxGeometry x="1170" y="160" width="370" height="60" as="geometry" />
        </mxCell>
        <mxCell id="1xZOdAHlnj8blG5HcDeI-43" value="&lt;font face=&quot;Verdana&quot; style=&quot;font-size: 24px;&quot;&gt;Professor&lt;/font&gt;" style="text;html=1;align=center;verticalAlign=middle;whiteSpace=wrap;rounded=0;" parent="1" vertex="1">
          <mxGeometry x="1200" y="130" width="60" height="30" as="geometry" />
        </mxCell>
        <mxCell id="1xZOdAHlnj8blG5HcDeI-45" value="&lt;font face=&quot;Verdana&quot; style=&quot;font-size: 24px;&quot;&gt;&lt;span&gt;nome&lt;/span&gt;&lt;/font&gt;" style="text;html=1;align=center;verticalAlign=middle;whiteSpace=wrap;rounded=0;fontStyle=0" parent="1" vertex="1">
          <mxGeometry x="1260" y="175" width="100" height="30" as="geometry" />
        </mxCell>
        <mxCell id="1xZOdAHlnj8blG5HcDeI-47" value="&lt;font style=&quot;font-size: 24px;&quot; face=&quot;Verdana&quot;&gt;e-mail&lt;/font&gt;" style="text;html=1;align=center;verticalAlign=middle;whiteSpace=wrap;rounded=0;fontStyle=4" parent="1" vertex="1">
          <mxGeometry x="1170" y="175" width="100" height="30" as="geometry" />
        </mxCell>
        <mxCell id="1xZOdAHlnj8blG5HcDeI-48" value="&lt;font face=&quot;Verdana&quot; style=&quot;font-size: 24px;&quot;&gt;especialização&lt;/font&gt;" style="text;html=1;align=center;verticalAlign=middle;whiteSpace=wrap;rounded=0;" parent="1" vertex="1">
          <mxGeometry x="1400" y="175" width="100" height="30" as="geometry" />
        </mxCell>
        <mxCell id="1xZOdAHlnj8blG5HcDeI-51" value="" style="line;strokeWidth=2;direction=south;html=1;" parent="1" vertex="1">
          <mxGeometry x="1260" y="160" width="10" height="60" as="geometry" />
        </mxCell>
        <mxCell id="1xZOdAHlnj8blG5HcDeI-52" value="" style="line;strokeWidth=2;direction=south;html=1;" parent="1" vertex="1">
          <mxGeometry x="1350" y="160" width="10" height="60" as="geometry" />
        </mxCell>
        <mxCell id="1xZOdAHlnj8blG5HcDeI-66" value="" style="rounded=0;whiteSpace=wrap;html=1;" parent="1" vertex="1">
          <mxGeometry x="-230" y="450" width="1060" height="60" as="geometry" />
        </mxCell>
        <mxCell id="1xZOdAHlnj8blG5HcDeI-67" value="&lt;font face=&quot;Verdana&quot; style=&quot;font-size: 24px;&quot;&gt;Aula&lt;/font&gt;" style="text;html=1;align=center;verticalAlign=middle;whiteSpace=wrap;rounded=0;" parent="1" vertex="1">
          <mxGeometry x="-230" y="420" width="60" height="30" as="geometry" />
        </mxCell>
        <mxCell id="1xZOdAHlnj8blG5HcDeI-69" value="&lt;font style=&quot;font-size: 24px;&quot; face=&quot;Verdana&quot;&gt;nome&lt;/font&gt;" style="text;html=1;align=center;verticalAlign=middle;whiteSpace=wrap;rounded=0;fontStyle=4" parent="1" vertex="1">
          <mxGeometry x="-200" y="465" width="100" height="30" as="geometry" />
        </mxCell>
        <mxCell id="1xZOdAHlnj8blG5HcDeI-70" value="&lt;font face=&quot;Verdana&quot; style=&quot;font-size: 24px;&quot;&gt;descrição&lt;/font&gt;" style="text;html=1;align=center;verticalAlign=middle;whiteSpace=wrap;rounded=0;" parent="1" vertex="1">
          <mxGeometry x="690" y="465" width="100" height="30" as="geometry" />
        </mxCell>
        <mxCell id="1xZOdAHlnj8blG5HcDeI-71" value="&lt;font face=&quot;Verdana&quot; style=&quot;font-size: 24px;&quot;&gt;duração&lt;/font&gt;" style="text;html=1;align=center;verticalAlign=middle;whiteSpace=wrap;rounded=0;" parent="1" vertex="1">
          <mxGeometry x="175" y="465" width="100" height="30" as="geometry" />
        </mxCell>
        <mxCell id="1xZOdAHlnj8blG5HcDeI-72" value="&lt;font face=&quot;Verdana&quot; style=&quot;font-size: 24px;&quot;&gt;tipo&lt;/font&gt;" style="text;html=1;align=center;verticalAlign=middle;whiteSpace=wrap;rounded=0;" parent="1" vertex="1">
          <mxGeometry x="321" y="465" width="60" height="30" as="geometry" />
        </mxCell>
        <mxCell id="1xZOdAHlnj8blG5HcDeI-73" value="&lt;font face=&quot;Verdana&quot; style=&quot;font-size: 24px;&quot;&gt;ordem_no_curso&lt;/font&gt;" style="text;html=1;align=center;verticalAlign=middle;whiteSpace=wrap;rounded=0;" parent="1" vertex="1">
          <mxGeometry x="491" y="465" width="100" height="30" as="geometry" />
        </mxCell>
        <mxCell id="1xZOdAHlnj8blG5HcDeI-75" value="" style="line;strokeWidth=2;direction=south;html=1;" parent="1" vertex="1">
          <mxGeometry x="144" y="450" width="10" height="60" as="geometry" />
        </mxCell>
        <mxCell id="1xZOdAHlnj8blG5HcDeI-76" value="" style="line;strokeWidth=2;direction=south;html=1;" parent="1" vertex="1">
          <mxGeometry x="285" y="450" width="10" height="60" as="geometry" />
        </mxCell>
        <mxCell id="1xZOdAHlnj8blG5HcDeI-77" value="" style="line;strokeWidth=2;direction=south;html=1;" parent="1" vertex="1">
          <mxGeometry x="-80" y="450" width="10" height="60" as="geometry" />
        </mxCell>
        <mxCell id="1xZOdAHlnj8blG5HcDeI-81" value="" style="line;strokeWidth=2;direction=south;html=1;" parent="1" vertex="1">
          <mxGeometry x="413" y="450" width="10" height="60" as="geometry" />
        </mxCell>
        <mxCell id="1xZOdAHlnj8blG5HcDeI-82" value="" style="rounded=0;whiteSpace=wrap;html=1;" parent="1" vertex="1">
          <mxGeometry x="-610" y="790" width="1150" height="60" as="geometry" />
        </mxCell>
        <mxCell id="1xZOdAHlnj8blG5HcDeI-83" value="&lt;font face=&quot;Verdana&quot; style=&quot;font-size: 24px;&quot;&gt;Vaga&lt;/font&gt;" style="text;html=1;align=center;verticalAlign=middle;whiteSpace=wrap;rounded=0;" parent="1" vertex="1">
          <mxGeometry x="-600" y="760" width="60" height="30" as="geometry" />
        </mxCell>
        <mxCell id="1xZOdAHlnj8blG5HcDeI-84" value="&lt;font face=&quot;Verdana&quot; style=&quot;font-size: 24px;&quot;&gt;&lt;u&gt;id&lt;/u&gt;&lt;/font&gt;" style="text;html=1;align=center;verticalAlign=middle;whiteSpace=wrap;rounded=0;" parent="1" vertex="1">
          <mxGeometry x="-573" y="805" width="53" height="30" as="geometry" />
        </mxCell>
        <mxCell id="1xZOdAHlnj8blG5HcDeI-85" value="&lt;font face=&quot;Verdana&quot; style=&quot;font-size: 24px;&quot;&gt;descrição&lt;/font&gt;" style="text;html=1;align=center;verticalAlign=middle;whiteSpace=wrap;rounded=0;" parent="1" vertex="1">
          <mxGeometry x="-233" y="805" width="100" height="30" as="geometry" />
        </mxCell>
        <mxCell id="1xZOdAHlnj8blG5HcDeI-96" value="" style="line;strokeWidth=2;direction=south;html=1;" parent="1" vertex="1">
          <mxGeometry x="-360" y="790" width="10" height="60" as="geometry" />
        </mxCell>
        <mxCell id="1xZOdAHlnj8blG5HcDeI-104" value="" style="rounded=0;whiteSpace=wrap;html=1;" parent="1" vertex="1">
          <mxGeometry x="-470" y="1005" width="650" height="60" as="geometry" />
        </mxCell>
        <mxCell id="1xZOdAHlnj8blG5HcDeI-105" value="&lt;font face=&quot;Verdana&quot; style=&quot;font-size: 24px;&quot;&gt;Empresa&lt;/font&gt;" style="text;html=1;align=center;verticalAlign=middle;whiteSpace=wrap;rounded=0;" parent="1" vertex="1">
          <mxGeometry x="-443" y="975" width="60" height="30" as="geometry" />
        </mxCell>
        <mxCell id="1xZOdAHlnj8blG5HcDeI-106" value="&lt;font face=&quot;Verdana&quot; style=&quot;font-size: 24px;&quot;&gt;&lt;u&gt;nome&lt;/u&gt;&lt;/font&gt;" style="text;html=1;align=center;verticalAlign=middle;whiteSpace=wrap;rounded=0;" parent="1" vertex="1">
          <mxGeometry x="-470" y="1020" width="100" height="30" as="geometry" />
        </mxCell>
        <mxCell id="1xZOdAHlnj8blG5HcDeI-107" value="&lt;font face=&quot;Verdana&quot; style=&quot;font-size: 24px;&quot;&gt;localização&lt;/font&gt;" style="text;html=1;align=center;verticalAlign=middle;whiteSpace=wrap;rounded=0;" parent="1" vertex="1">
          <mxGeometry x="-350" y="1020" width="100" height="30" as="geometry" />
        </mxCell>
        <mxCell id="1xZOdAHlnj8blG5HcDeI-108" value="&lt;font face=&quot;Verdana&quot; style=&quot;font-size: 24px;&quot;&gt;setor&lt;/font&gt;" style="text;html=1;align=center;verticalAlign=middle;whiteSpace=wrap;rounded=0;" parent="1" vertex="1">
          <mxGeometry x="-230" y="1020" width="100" height="30" as="geometry" />
        </mxCell>
        <mxCell id="1xZOdAHlnj8blG5HcDeI-109" value="" style="line;strokeWidth=2;direction=south;html=1;" parent="1" vertex="1">
          <mxGeometry x="-380" y="1005" width="10" height="60" as="geometry" />
        </mxCell>
        <mxCell id="1xZOdAHlnj8blG5HcDeI-112" value="" style="line;strokeWidth=2;direction=south;html=1;" parent="1" vertex="1">
          <mxGeometry x="-230" y="1005" width="10" height="60" as="geometry" />
        </mxCell>
        <mxCell id="A7jQTbR0Qby62SUjssi_-13" style="edgeStyle=orthogonalEdgeStyle;rounded=0;orthogonalLoop=1;jettySize=auto;html=1;exitX=0.5;exitY=1;exitDx=0;exitDy=0;entryX=0.5;entryY=0;entryDx=0;entryDy=0;" parent="1" source="1xZOdAHlnj8blG5HcDeI-114" target="1xZOdAHlnj8blG5HcDeI-106" edge="1">
          <mxGeometry relative="1" as="geometry" />
        </mxCell>
        <mxCell id="1xZOdAHlnj8blG5HcDeI-114" value="&lt;font face=&quot;Verdana&quot; style=&quot;font-size: 24px;&quot;&gt;empresa&lt;/font&gt;" style="text;html=1;align=center;verticalAlign=middle;whiteSpace=wrap;rounded=0;" parent="1" vertex="1">
          <mxGeometry x="-470" y="805" width="100" height="30" as="geometry" />
        </mxCell>
        <mxCell id="1xZOdAHlnj8blG5HcDeI-115" value="" style="line;strokeWidth=2;direction=south;html=1;" parent="1" vertex="1">
          <mxGeometry x="-490" y="790" width="10" height="60" as="geometry" />
        </mxCell>
        <mxCell id="1xZOdAHlnj8blG5HcDeI-121" value="" style="rounded=0;whiteSpace=wrap;html=1;" parent="1" vertex="1">
          <mxGeometry x="50" y="10" width="650" height="60" as="geometry" />
        </mxCell>
        <mxCell id="1xZOdAHlnj8blG5HcDeI-122" value="&lt;font face=&quot;Verdana&quot; style=&quot;font-size: 24px;&quot;&gt;Estuda&lt;/font&gt;" style="text;html=1;align=center;verticalAlign=middle;whiteSpace=wrap;rounded=0;" parent="1" vertex="1">
          <mxGeometry x="80" y="-20" width="60" height="30" as="geometry" />
        </mxCell>
        <mxCell id="A7jQTbR0Qby62SUjssi_-10" style="edgeStyle=orthogonalEdgeStyle;rounded=0;orthogonalLoop=1;jettySize=auto;html=1;exitX=0.5;exitY=1;exitDx=0;exitDy=0;entryX=0.5;entryY=0;entryDx=0;entryDy=0;" parent="1" source="1xZOdAHlnj8blG5HcDeI-123" target="1xZOdAHlnj8blG5HcDeI-5" edge="1">
          <mxGeometry relative="1" as="geometry" />
        </mxCell>
        <mxCell id="1xZOdAHlnj8blG5HcDeI-123" value="&lt;font style=&quot;font-size: 24px;&quot; face=&quot;Verdana&quot;&gt;cpf_aluno&lt;/font&gt;" style="text;html=1;align=center;verticalAlign=middle;whiteSpace=wrap;rounded=0;fontStyle=4" parent="1" vertex="1">
          <mxGeometry x="63" y="25" width="160" height="30" as="geometry" />
        </mxCell>
        <mxCell id="A7jQTbR0Qby62SUjssi_-16" style="edgeStyle=orthogonalEdgeStyle;rounded=0;orthogonalLoop=1;jettySize=auto;html=1;exitX=0.5;exitY=1;exitDx=0;exitDy=0;entryX=0.25;entryY=0;entryDx=0;entryDy=0;" parent="1" source="1xZOdAHlnj8blG5HcDeI-124" target="1xZOdAHlnj8blG5HcDeI-31" edge="1">
          <mxGeometry relative="1" as="geometry" />
        </mxCell>
        <mxCell id="1xZOdAHlnj8blG5HcDeI-124" value="&lt;font style=&quot;font-size: 24px;&quot; face=&quot;Verdana&quot;&gt;nome_curso&lt;/font&gt;" style="text;html=1;align=center;verticalAlign=middle;whiteSpace=wrap;rounded=0;fontStyle=4" parent="1" vertex="1">
          <mxGeometry x="224" y="25" width="174" height="30" as="geometry" />
        </mxCell>
        <mxCell id="1xZOdAHlnj8blG5HcDeI-125" value="&lt;font face=&quot;Verdana&quot; style=&quot;font-size: 24px;&quot;&gt;data_conclusão&lt;/font&gt;" style="text;html=1;align=center;verticalAlign=middle;whiteSpace=wrap;rounded=0;" parent="1" vertex="1">
          <mxGeometry x="420" y="25" width="174" height="30" as="geometry" />
        </mxCell>
        <mxCell id="1xZOdAHlnj8blG5HcDeI-126" value="&lt;font face=&quot;Verdana&quot; style=&quot;font-size: 24px;&quot;&gt;nota&lt;/font&gt;" style="text;html=1;align=center;verticalAlign=middle;whiteSpace=wrap;rounded=0;" parent="1" vertex="1">
          <mxGeometry x="573" y="25" width="174" height="30" as="geometry" />
        </mxCell>
        <mxCell id="1xZOdAHlnj8blG5HcDeI-127" value="" style="line;strokeWidth=2;direction=south;html=1;" parent="1" vertex="1">
          <mxGeometry x="224" y="10" width="10" height="60" as="geometry" />
        </mxCell>
        <mxCell id="1xZOdAHlnj8blG5HcDeI-128" value="" style="line;strokeWidth=2;direction=south;html=1;" parent="1" vertex="1">
          <mxGeometry x="394" y="10" width="10" height="60" as="geometry" />
        </mxCell>
        <mxCell id="1xZOdAHlnj8blG5HcDeI-129" value="" style="line;strokeWidth=2;direction=south;html=1;" parent="1" vertex="1">
          <mxGeometry x="610" y="10" width="10" height="60" as="geometry" />
        </mxCell>
        <mxCell id="1xZOdAHlnj8blG5HcDeI-132" value="" style="rounded=0;whiteSpace=wrap;html=1;" parent="1" vertex="1">
          <mxGeometry x="970" y="10" width="440" height="60" as="geometry" />
        </mxCell>
        <mxCell id="1xZOdAHlnj8blG5HcDeI-133" value="&lt;font face=&quot;Verdana&quot; style=&quot;font-size: 24px;&quot;&gt;Ministra&lt;/font&gt;" style="text;html=1;align=center;verticalAlign=middle;whiteSpace=wrap;rounded=0;" parent="1" vertex="1">
          <mxGeometry x="991" y="-20" width="60" height="30" as="geometry" />
        </mxCell>
        <mxCell id="fgC8I-oqLa6KgGw46Ecn-42" style="edgeStyle=orthogonalEdgeStyle;rounded=0;orthogonalLoop=1;jettySize=auto;html=1;exitX=0.17;exitY=0.967;exitDx=0;exitDy=0;exitPerimeter=0;" parent="1" source="1xZOdAHlnj8blG5HcDeI-134" target="1xZOdAHlnj8blG5HcDeI-47" edge="1">
          <mxGeometry relative="1" as="geometry">
            <Array as="points" />
          </mxGeometry>
        </mxCell>
        <mxCell id="1xZOdAHlnj8blG5HcDeI-134" value="&lt;font style=&quot;font-size: 24px;&quot; face=&quot;Verdana&quot;&gt;e-mail_professor&lt;/font&gt;" style="text;html=1;align=center;verticalAlign=middle;whiteSpace=wrap;rounded=0;fontStyle=4" parent="1" vertex="1">
          <mxGeometry x="1180" y="25" width="230" height="30" as="geometry" />
        </mxCell>
        <mxCell id="1xZOdAHlnj8blG5HcDeI-135" value="&lt;font style=&quot;font-size: 24px;&quot; face=&quot;Verdana&quot;&gt;nome_curso&lt;/font&gt;" style="text;html=1;align=center;verticalAlign=middle;whiteSpace=wrap;rounded=0;fontStyle=4" parent="1" vertex="1">
          <mxGeometry x="1025" y="25" width="100" height="30" as="geometry" />
        </mxCell>
        <mxCell id="1xZOdAHlnj8blG5HcDeI-136" value="" style="line;strokeWidth=2;direction=south;html=1;" parent="1" vertex="1">
          <mxGeometry x="1170" y="10" width="10" height="60" as="geometry" />
        </mxCell>
        <mxCell id="1xZOdAHlnj8blG5HcDeI-146" value="" style="rounded=0;whiteSpace=wrap;html=1;" parent="1" vertex="1">
          <mxGeometry x="-715" y="450" width="360" height="60" as="geometry" />
        </mxCell>
        <mxCell id="1xZOdAHlnj8blG5HcDeI-147" value="&lt;font face=&quot;Verdana&quot;&gt;&lt;span style=&quot;font-size: 24px;&quot;&gt;Se_Inscreve&lt;/span&gt;&lt;/font&gt;" style="text;html=1;align=center;verticalAlign=middle;whiteSpace=wrap;rounded=0;" parent="1" vertex="1">
          <mxGeometry x="-695" y="420" width="122" height="30" as="geometry" />
        </mxCell>
        <mxCell id="fgC8I-oqLa6KgGw46Ecn-35" style="edgeStyle=orthogonalEdgeStyle;rounded=0;orthogonalLoop=1;jettySize=auto;html=1;" parent="1" source="1xZOdAHlnj8blG5HcDeI-148" target="1xZOdAHlnj8blG5HcDeI-5" edge="1">
          <mxGeometry relative="1" as="geometry">
            <Array as="points">
              <mxPoint x="-613" y="330" />
              <mxPoint x="-690" y="330" />
            </Array>
          </mxGeometry>
        </mxCell>
        <mxCell id="1xZOdAHlnj8blG5HcDeI-148" value="&lt;font style=&quot;font-size: 24px;&quot; face=&quot;Verdana&quot;&gt;cpf_aluno&lt;/font&gt;" style="text;html=1;align=center;verticalAlign=middle;whiteSpace=wrap;rounded=0;fontStyle=4" parent="1" vertex="1">
          <mxGeometry x="-705" y="465" width="183" height="30" as="geometry" />
        </mxCell>
        <mxCell id="A7jQTbR0Qby62SUjssi_-12" style="edgeStyle=orthogonalEdgeStyle;rounded=0;orthogonalLoop=1;jettySize=auto;html=1;exitX=0.5;exitY=1;exitDx=0;exitDy=0;entryX=0.5;entryY=0;entryDx=0;entryDy=0;" parent="1" source="1xZOdAHlnj8blG5HcDeI-149" target="1xZOdAHlnj8blG5HcDeI-84" edge="1">
          <mxGeometry relative="1" as="geometry">
            <Array as="points">
              <mxPoint x="-425" y="630" />
              <mxPoint x="-547" y="630" />
            </Array>
          </mxGeometry>
        </mxCell>
        <mxCell id="1xZOdAHlnj8blG5HcDeI-149" value="&lt;font face=&quot;Verdana&quot;&gt;&lt;span style=&quot;font-size: 24px;&quot;&gt;id_vaga&lt;/span&gt;&lt;/font&gt;" style="text;html=1;align=center;verticalAlign=middle;whiteSpace=wrap;rounded=0;fontStyle=4" parent="1" vertex="1">
          <mxGeometry x="-475" y="465" width="100" height="30" as="geometry" />
        </mxCell>
        <mxCell id="1xZOdAHlnj8blG5HcDeI-150" value="" style="line;strokeWidth=2;direction=south;html=1;" parent="1" vertex="1">
          <mxGeometry x="-508" y="450" width="10" height="60" as="geometry" />
        </mxCell>
        <mxCell id="fgC8I-oqLa6KgGw46Ecn-45" value="" style="rounded=0;whiteSpace=wrap;html=1;" parent="1" vertex="1">
          <mxGeometry x="-280" y="620" width="310" height="60" as="geometry" />
        </mxCell>
        <mxCell id="fgC8I-oqLa6KgGw46Ecn-54" style="edgeStyle=orthogonalEdgeStyle;rounded=0;orthogonalLoop=1;jettySize=auto;html=1;entryX=0.75;entryY=0;entryDx=0;entryDy=0;" parent="1" source="fgC8I-oqLa6KgGw46Ecn-47" target="1xZOdAHlnj8blG5HcDeI-84" edge="1">
          <mxGeometry relative="1" as="geometry" />
        </mxCell>
        <mxCell id="fgC8I-oqLa6KgGw46Ecn-47" value="&lt;font face=&quot;Verdana&quot; style=&quot;font-size: 24px;&quot;&gt;&lt;u&gt;id_vaga&lt;/u&gt;&lt;/font&gt;" style="text;html=1;align=center;verticalAlign=middle;whiteSpace=wrap;rounded=0;" parent="1" vertex="1">
          <mxGeometry x="-270" y="635" width="100" height="30" as="geometry" />
        </mxCell>
        <mxCell id="fgC8I-oqLa6KgGw46Ecn-51" value="" style="line;strokeWidth=2;direction=south;html=1;" parent="1" vertex="1">
          <mxGeometry x="-160" y="620" width="10" height="60" as="geometry" />
        </mxCell>
        <mxCell id="fgC8I-oqLa6KgGw46Ecn-52" value="&lt;font style=&quot;font-size: 24px;&quot; face=&quot;Verdana&quot;&gt;id_habilidade&lt;/font&gt;" style="text;html=1;align=center;verticalAlign=middle;whiteSpace=wrap;rounded=0;fontStyle=4" parent="1" vertex="1">
          <mxGeometry x="-130" y="635" width="140" height="30" as="geometry" />
        </mxCell>
        <mxCell id="fgC8I-oqLa6KgGw46Ecn-53" value="&lt;font face=&quot;Verdana&quot; style=&quot;font-size: 24px;&quot;&gt;Habilidade_Vaga&lt;/font&gt;" style="text;html=1;align=center;verticalAlign=middle;whiteSpace=wrap;rounded=0;" parent="1" vertex="1">
          <mxGeometry x="-280" y="590" width="203" height="30" as="geometry" />
        </mxCell>
        <mxCell id="CPbLaH_bfbU2s-RhxCpn-5" value="" style="line;strokeWidth=2;direction=south;html=1;" parent="1" vertex="1">
          <mxGeometry x="650" y="450" width="10" height="60" as="geometry" />
        </mxCell>
        <mxCell id="CPbLaH_bfbU2s-RhxCpn-6" value="&lt;font face=&quot;Verdana&quot; style=&quot;font-size: 24px;&quot;&gt;nome_curso&lt;/font&gt;" style="text;html=1;align=center;verticalAlign=middle;whiteSpace=wrap;rounded=0;" parent="1" vertex="1">
          <mxGeometry x="-40" y="465" width="160" height="30" as="geometry" />
        </mxCell>
        <mxCell id="efzb95WGXfAEgEfDCb-a-1" value="" style="rounded=0;whiteSpace=wrap;html=1;" parent="1" vertex="1">
          <mxGeometry x="981" y="450" width="357.5" height="60" as="geometry" />
        </mxCell>
        <mxCell id="efzb95WGXfAEgEfDCb-a-2" value="&lt;font face=&quot;Verdana&quot; style=&quot;font-size: 24px;&quot;&gt;Habilidade_Curso&lt;/font&gt;" style="text;html=1;align=center;verticalAlign=middle;whiteSpace=wrap;rounded=0;" parent="1" vertex="1">
          <mxGeometry x="988.5" y="420" width="203" height="30" as="geometry" />
        </mxCell>
        <mxCell id="efzb95WGXfAEgEfDCb-a-3" value="&lt;font face=&quot;Verdana&quot; style=&quot;font-size: 24px;&quot;&gt;&lt;u&gt;nome_curso&lt;/u&gt;&lt;/font&gt;" style="text;html=1;align=center;verticalAlign=middle;whiteSpace=wrap;rounded=0;" parent="1" vertex="1">
          <mxGeometry x="1021.5" y="465" width="100" height="30" as="geometry" />
        </mxCell>
        <mxCell id="efzb95WGXfAEgEfDCb-a-6" value="" style="line;strokeWidth=2;direction=south;html=1;" parent="1" vertex="1">
          <mxGeometry x="1154.75" y="450" width="10" height="60" as="geometry" />
        </mxCell>
        <mxCell id="efzb95WGXfAEgEfDCb-a-8" value="&lt;font style=&quot;font-size: 24px;&quot; face=&quot;Verdana&quot;&gt;id_habilidade&lt;/font&gt;" style="text;html=1;align=center;verticalAlign=middle;whiteSpace=wrap;rounded=0;fontStyle=4" parent="1" vertex="1">
          <mxGeometry x="1181.5" y="465" width="140" height="30" as="geometry" />
        </mxCell>
        <mxCell id="efzb95WGXfAEgEfDCb-a-12" value="" style="line;strokeWidth=2;direction=south;html=1;" parent="1" vertex="1">
          <mxGeometry x="-260" y="790" width="10" height="60" as="geometry" />
        </mxCell>
        <mxCell id="efzb95WGXfAEgEfDCb-a-13" value="&lt;font face=&quot;Verdana&quot; style=&quot;font-size: 24px;&quot;&gt;nome&lt;/font&gt;" style="text;html=1;align=center;verticalAlign=middle;whiteSpace=wrap;rounded=0;" parent="1" vertex="1">
          <mxGeometry x="-355" y="805" width="100" height="30" as="geometry" />
        </mxCell>
        <mxCell id="A7jQTbR0Qby62SUjssi_-9" style="edgeStyle=orthogonalEdgeStyle;rounded=0;orthogonalLoop=1;jettySize=auto;html=1;entryX=0.634;entryY=1.162;entryDx=0;entryDy=0;entryPerimeter=0;" parent="1" source="efzb95WGXfAEgEfDCb-a-3" target="1xZOdAHlnj8blG5HcDeI-31" edge="1">
          <mxGeometry relative="1" as="geometry">
            <mxPoint x="720" y="405" as="sourcePoint" />
            <Array as="points">
              <mxPoint x="940" y="480" />
              <mxPoint x="940" y="390" />
              <mxPoint x="493" y="390" />
            </Array>
          </mxGeometry>
        </mxCell>
        <mxCell id="A7jQTbR0Qby62SUjssi_-17" style="edgeStyle=orthogonalEdgeStyle;rounded=0;orthogonalLoop=1;jettySize=auto;html=1;exitX=0.5;exitY=1;exitDx=0;exitDy=0;entryX=0.75;entryY=0;entryDx=0;entryDy=0;" parent="1" source="1xZOdAHlnj8blG5HcDeI-135" target="1xZOdAHlnj8blG5HcDeI-31" edge="1">
          <mxGeometry relative="1" as="geometry">
            <mxPoint x="490" y="280" as="targetPoint" />
          </mxGeometry>
        </mxCell>
        <mxCell id="A7jQTbR0Qby62SUjssi_-18" value="" style="rounded=0;whiteSpace=wrap;html=1;" parent="1" vertex="1">
          <mxGeometry x="190" y="620" width="347" height="60" as="geometry" />
        </mxCell>
        <mxCell id="A7jQTbR0Qby62SUjssi_-19" value="&lt;font face=&quot;Verdana&quot; style=&quot;font-size: 24px;&quot;&gt;Habilidade&lt;/font&gt;" style="text;html=1;align=center;verticalAlign=middle;whiteSpace=wrap;rounded=0;" parent="1" vertex="1">
          <mxGeometry x="227" y="590" width="60" height="30" as="geometry" />
        </mxCell>
        <mxCell id="A7jQTbR0Qby62SUjssi_-20" value="&lt;font face=&quot;Verdana&quot; style=&quot;font-size: 24px;&quot;&gt;&lt;u&gt;id&lt;/u&gt;&lt;/font&gt;" style="text;html=1;align=center;verticalAlign=middle;whiteSpace=wrap;rounded=0;" parent="1" vertex="1">
          <mxGeometry x="227" y="635" width="53" height="30" as="geometry" />
        </mxCell>
        <mxCell id="A7jQTbR0Qby62SUjssi_-22" value="" style="line;strokeWidth=2;direction=south;html=1;" parent="1" vertex="1">
          <mxGeometry x="440" y="620" width="10" height="60" as="geometry" />
        </mxCell>
        <mxCell id="A7jQTbR0Qby62SUjssi_-23" value="&lt;font face=&quot;Verdana&quot; style=&quot;font-size: 24px;&quot;&gt;nome&lt;/font&gt;" style="text;html=1;align=center;verticalAlign=middle;whiteSpace=wrap;rounded=0;" parent="1" vertex="1">
          <mxGeometry x="330" y="635" width="100" height="30" as="geometry" />
        </mxCell>
        <mxCell id="A7jQTbR0Qby62SUjssi_-24" value="" style="line;strokeWidth=2;direction=south;html=1;" parent="1" vertex="1">
          <mxGeometry x="310" y="620" width="10" height="60" as="geometry" />
        </mxCell>
        <mxCell id="A7jQTbR0Qby62SUjssi_-26" value="&lt;font face=&quot;Verdana&quot; style=&quot;font-size: 24px;&quot;&gt;nível&lt;/font&gt;" style="text;html=1;align=center;verticalAlign=middle;whiteSpace=wrap;rounded=0;" parent="1" vertex="1">
          <mxGeometry x="445" y="635" width="100" height="30" as="geometry" />
        </mxCell>
        <mxCell id="bXC_qHRclVCHjljpKXDE-14" value="&lt;font face=&quot;Verdana&quot; style=&quot;font-size: 24px;&quot;&gt;acesso&lt;/font&gt;" style="text;html=1;align=center;verticalAlign=middle;whiteSpace=wrap;rounded=0;" parent="1" vertex="1">
          <mxGeometry x="1070" y="285" width="100" height="30" as="geometry" />
        </mxCell>
        <mxCell id="bXC_qHRclVCHjljpKXDE-15" value="" style="line;strokeWidth=2;direction=south;html=1;" parent="1" vertex="1">
          <mxGeometry x="1060" y="270" width="10" height="60" as="geometry" />
        </mxCell>
        <mxCell id="bXC_qHRclVCHjljpKXDE-18" value="&lt;font face=&quot;Verdana&quot; style=&quot;font-size: 24px;&quot;&gt;descrição&lt;/font&gt;" style="text;html=1;align=center;verticalAlign=middle;whiteSpace=wrap;rounded=0;" parent="1" vertex="1">
          <mxGeometry x="-115" y="1020" width="100" height="30" as="geometry" />
        </mxCell>
        <mxCell id="bXC_qHRclVCHjljpKXDE-19" value="&lt;font face=&quot;Verdana&quot; style=&quot;font-size: 24px;&quot;&gt;porte&lt;/font&gt;" style="text;html=1;align=center;verticalAlign=middle;whiteSpace=wrap;rounded=0;" parent="1" vertex="1">
          <mxGeometry y="1020" width="100" height="30" as="geometry" />
        </mxCell>
        <mxCell id="bXC_qHRclVCHjljpKXDE-20" value="" style="line;strokeWidth=2;direction=south;html=1;" parent="1" vertex="1">
          <mxGeometry x="-140" y="1005" width="10" height="60" as="geometry" />
        </mxCell>
        <mxCell id="bXC_qHRclVCHjljpKXDE-21" value="" style="line;strokeWidth=2;direction=south;html=1;" parent="1" vertex="1">
          <mxGeometry y="1005" width="10" height="60" as="geometry" />
        </mxCell>
        <mxCell id="bXC_qHRclVCHjljpKXDE-24" value="&lt;font face=&quot;Verdana&quot; style=&quot;font-size: 24px;&quot;&gt;nível&lt;/font&gt;" style="text;html=1;align=center;verticalAlign=middle;whiteSpace=wrap;rounded=0;" parent="1" vertex="1">
          <mxGeometry x="-120" y="805" width="100" height="30" as="geometry" />
        </mxCell>
        <mxCell id="bXC_qHRclVCHjljpKXDE-25" value="" style="line;strokeWidth=2;direction=south;html=1;" parent="1" vertex="1">
          <mxGeometry x="-120" y="790" width="10" height="60" as="geometry" />
        </mxCell>
        <mxCell id="bXC_qHRclVCHjljpKXDE-26" value="" style="line;strokeWidth=2;direction=south;html=1;" parent="1" vertex="1">
          <mxGeometry x="-31.5" y="790" width="10" height="60" as="geometry" />
        </mxCell>
        <mxCell id="bXC_qHRclVCHjljpKXDE-27" value="&lt;font face=&quot;Verdana&quot; style=&quot;font-size: 24px;&quot;&gt;modalidade&lt;/font&gt;" style="text;html=1;align=center;verticalAlign=middle;whiteSpace=wrap;rounded=0;" parent="1" vertex="1">
          <mxGeometry x="7" y="805" width="100" height="30" as="geometry" />
        </mxCell>
        <mxCell id="bXC_qHRclVCHjljpKXDE-28" value="" style="line;strokeWidth=2;direction=south;html=1;" parent="1" vertex="1">
          <mxGeometry x="135" y="790" width="10" height="60" as="geometry" />
        </mxCell>
        <mxCell id="bXC_qHRclVCHjljpKXDE-29" value="&lt;font face=&quot;Verdana&quot; style=&quot;font-size: 24px;&quot;&gt;salário&lt;/font&gt;" style="text;html=1;align=center;verticalAlign=middle;whiteSpace=wrap;rounded=0;" parent="1" vertex="1">
          <mxGeometry x="145" y="805" width="100" height="30" as="geometry" />
        </mxCell>
        <mxCell id="bXC_qHRclVCHjljpKXDE-30" value="" style="line;strokeWidth=2;direction=south;html=1;" parent="1" vertex="1">
          <mxGeometry x="244" y="790" width="10" height="60" as="geometry" />
        </mxCell>
        <mxCell id="bXC_qHRclVCHjljpKXDE-31" value="&lt;font face=&quot;Verdana&quot; style=&quot;font-size: 24px;&quot;&gt;prazo&lt;/font&gt;" style="text;html=1;align=center;verticalAlign=middle;whiteSpace=wrap;rounded=0;" parent="1" vertex="1">
          <mxGeometry x="445" y="805" width="100" height="30" as="geometry" />
        </mxCell>
        <mxCell id="bXC_qHRclVCHjljpKXDE-32" value="&lt;font face=&quot;Verdana&quot; style=&quot;font-size: 24px;&quot;&gt;tempo_aberta&lt;/font&gt;" style="text;html=1;align=center;verticalAlign=middle;whiteSpace=wrap;rounded=0;" parent="1" vertex="1">
          <mxGeometry x="300" y="805" width="100" height="30" as="geometry" />
        </mxCell>
        <mxCell id="bXC_qHRclVCHjljpKXDE-33" value="" style="line;strokeWidth=2;direction=south;html=1;" parent="1" vertex="1">
          <mxGeometry x="445" y="790" width="10" height="60" as="geometry" />
        </mxCell>
        <mxCell id="bXC_qHRclVCHjljpKXDE-34" value="&lt;font face=&quot;Verdana&quot; style=&quot;font-size: 24px;&quot;&gt;senha&lt;/font&gt;" style="text;html=1;align=center;verticalAlign=middle;whiteSpace=wrap;rounded=0;" parent="1" vertex="1">
          <mxGeometry x="-460" y="165" width="100" height="30" as="geometry" />
        </mxCell>
        <mxCell id="bXC_qHRclVCHjljpKXDE-35" value="" style="line;strokeWidth=2;direction=south;html=1;" parent="1" vertex="1">
          <mxGeometry x="-370" y="150" width="10" height="60" as="geometry" />
        </mxCell>
        <mxCell id="bXC_qHRclVCHjljpKXDE-36" value="" style="line;strokeWidth=2;direction=south;html=1;" parent="1" vertex="1">
          <mxGeometry x="-225" y="150" width="10" height="60" as="geometry" />
        </mxCell>
        <mxCell id="bXC_qHRclVCHjljpKXDE-37" value="&lt;font face=&quot;Verdana&quot; style=&quot;font-size: 24px;&quot;&gt;forma_pagamento&lt;/font&gt;" style="text;html=1;align=center;verticalAlign=middle;whiteSpace=wrap;rounded=0;" parent="1" vertex="1">
          <mxGeometry x="-60" y="165" width="100" height="30" as="geometry" />
        </mxCell>
        <mxCell id="bXC_qHRclVCHjljpKXDE-39" value="&lt;font face=&quot;Verdana&quot;&gt;&lt;span style=&quot;font-size: 24px;&quot;&gt;email&lt;/span&gt;&lt;/font&gt;" style="text;html=1;align=center;verticalAlign=middle;whiteSpace=wrap;rounded=0;" parent="1" vertex="1">
          <mxGeometry x="-553" y="165" width="100" height="30" as="geometry" />
        </mxCell>
        <mxCell id="bXC_qHRclVCHjljpKXDE-40" value="" style="line;strokeWidth=2;direction=south;html=1;" parent="1" vertex="1">
          <mxGeometry x="-140" y="150" width="10" height="60" as="geometry" />
        </mxCell>
        <mxCell id="I4OUeWfFcP3w6D2gxnNu-1" style="edgeStyle=orthogonalEdgeStyle;rounded=0;orthogonalLoop=1;jettySize=auto;html=1;exitX=1;exitY=0.5;exitDx=0;exitDy=0;" edge="1" parent="1" source="fgC8I-oqLa6KgGw46Ecn-52">
          <mxGeometry relative="1" as="geometry">
            <Array as="points" />
            <mxPoint x="1330" y="180" as="sourcePoint" />
            <mxPoint x="220" y="650" as="targetPoint" />
          </mxGeometry>
        </mxCell>
        <mxCell id="I4OUeWfFcP3w6D2gxnNu-2" style="edgeStyle=orthogonalEdgeStyle;rounded=0;orthogonalLoop=1;jettySize=auto;html=1;exitX=0.5;exitY=1;exitDx=0;exitDy=0;entryX=0.5;entryY=0;entryDx=0;entryDy=0;" edge="1" parent="1" source="efzb95WGXfAEgEfDCb-a-8" target="A7jQTbR0Qby62SUjssi_-20">
          <mxGeometry relative="1" as="geometry">
            <Array as="points">
              <mxPoint x="996" y="495" />
              <mxPoint x="996" y="570" />
              <mxPoint x="254" y="570" />
            </Array>
            <mxPoint x="995.29" y="510" as="sourcePoint" />
            <mxPoint x="250" y="560" as="targetPoint" />
          </mxGeometry>
        </mxCell>
        <mxCell id="I4OUeWfFcP3w6D2gxnNu-3" style="edgeStyle=orthogonalEdgeStyle;rounded=0;orthogonalLoop=1;jettySize=auto;html=1;exitX=0.5;exitY=0;exitDx=0;exitDy=0;entryX=0.5;entryY=1;entryDx=0;entryDy=0;" edge="1" parent="1" source="CPbLaH_bfbU2s-RhxCpn-6" target="1xZOdAHlnj8blG5HcDeI-31">
          <mxGeometry relative="1" as="geometry">
            <mxPoint x="-80" y="582" as="sourcePoint" />
            <mxPoint x="330" y="310" as="targetPoint" />
            <Array as="points">
              <mxPoint x="40" y="390" />
              <mxPoint x="480" y="390" />
            </Array>
          </mxGeometry>
        </mxCell>
        <mxCell id="I4OUeWfFcP3w6D2gxnNu-4" value="" style="rounded=0;whiteSpace=wrap;html=1;" vertex="1" parent="1">
          <mxGeometry x="-455" y="285" width="515" height="60" as="geometry" />
        </mxCell>
        <mxCell id="I4OUeWfFcP3w6D2gxnNu-5" value="&lt;font face=&quot;Verdana&quot;&gt;&lt;span style=&quot;font-size: 24px;&quot;&gt;Assiste&lt;/span&gt;&lt;/font&gt;" style="text;html=1;align=center;verticalAlign=middle;whiteSpace=wrap;rounded=0;" vertex="1" parent="1">
          <mxGeometry x="-465" y="255" width="122" height="30" as="geometry" />
        </mxCell>
        <mxCell id="I4OUeWfFcP3w6D2gxnNu-6" value="&lt;font style=&quot;font-size: 24px;&quot; face=&quot;Verdana&quot;&gt;cpf_aluno&lt;/font&gt;" style="text;html=1;align=center;verticalAlign=middle;whiteSpace=wrap;rounded=0;fontStyle=4" vertex="1" parent="1">
          <mxGeometry x="-470" y="300" width="183" height="30" as="geometry" />
        </mxCell>
        <mxCell id="I4OUeWfFcP3w6D2gxnNu-7" value="&lt;font face=&quot;Verdana&quot;&gt;&lt;span style=&quot;font-size: 24px;&quot;&gt;nome_aula&lt;/span&gt;&lt;/font&gt;" style="text;html=1;align=center;verticalAlign=middle;whiteSpace=wrap;rounded=0;fontStyle=4" vertex="1" parent="1">
          <mxGeometry x="-277" y="300" width="100" height="30" as="geometry" />
        </mxCell>
        <mxCell id="I4OUeWfFcP3w6D2gxnNu-8" value="" style="line;strokeWidth=2;direction=south;html=1;" vertex="1" parent="1">
          <mxGeometry x="-313" y="285" width="10" height="60" as="geometry" />
        </mxCell>
        <mxCell id="I4OUeWfFcP3w6D2gxnNu-9" value="" style="line;strokeWidth=2;direction=south;html=1;" vertex="1" parent="1">
          <mxGeometry x="-155" y="285" width="10" height="60" as="geometry" />
        </mxCell>
        <mxCell id="I4OUeWfFcP3w6D2gxnNu-11" value="&lt;font face=&quot;Verdana&quot; style=&quot;font-size: 24px;&quot;&gt;data_conclusão&lt;/font&gt;" style="text;html=1;align=center;verticalAlign=middle;whiteSpace=wrap;rounded=0;" vertex="1" parent="1">
          <mxGeometry x="-93" y="300" width="100" height="30" as="geometry" />
        </mxCell>
        <mxCell id="I4OUeWfFcP3w6D2gxnNu-12" value="" style="endArrow=classic;html=1;rounded=0;exitX=0.5;exitY=1;exitDx=0;exitDy=0;entryX=0.5;entryY=0;entryDx=0;entryDy=0;" edge="1" parent="1" source="I4OUeWfFcP3w6D2gxnNu-7" target="1xZOdAHlnj8blG5HcDeI-69">
          <mxGeometry width="50" height="50" relative="1" as="geometry">
            <mxPoint x="190" y="490" as="sourcePoint" />
            <mxPoint x="-230" y="400" as="targetPoint" />
            <Array as="points">
              <mxPoint x="-227" y="400" />
              <mxPoint x="-150" y="400" />
            </Array>
          </mxGeometry>
        </mxCell>
        <mxCell id="I4OUeWfFcP3w6D2gxnNu-13" value="" style="endArrow=classic;html=1;rounded=0;exitX=0.5;exitY=0;exitDx=0;exitDy=0;entryX=0.611;entryY=0.962;entryDx=0;entryDy=0;entryPerimeter=0;" edge="1" parent="1" source="I4OUeWfFcP3w6D2gxnNu-6" target="1xZOdAHlnj8blG5HcDeI-5">
          <mxGeometry width="50" height="50" relative="1" as="geometry">
            <mxPoint x="-20" y="470" as="sourcePoint" />
            <mxPoint x="30" y="420" as="targetPoint" />
            <Array as="points">
              <mxPoint x="-380" y="240" />
              <mxPoint x="-493" y="240" />
              <mxPoint x="-669" y="240" />
            </Array>
          </mxGeometry>
        </mxCell>
        <mxCell id="I4OUeWfFcP3w6D2gxnNu-16" value="" style="line;strokeWidth=2;direction=south;html=1;" vertex="1" parent="1">
          <mxGeometry x="1164.75" y="270" width="10" height="60" as="geometry" />
        </mxCell>
        <mxCell id="I4OUeWfFcP3w6D2gxnNu-17" value="&lt;font face=&quot;Verdana&quot; style=&quot;font-size: 24px;&quot;&gt;categoria&lt;/font&gt;" style="text;html=1;align=center;verticalAlign=middle;whiteSpace=wrap;rounded=0;" vertex="1" parent="1">
          <mxGeometry x="1191.5" y="285" width="100" height="30" as="geometry" />
        </mxCell>
        <mxCell id="I4OUeWfFcP3w6D2gxnNu-18" value="" style="line;strokeWidth=2;direction=south;html=1;" vertex="1" parent="1">
          <mxGeometry x="90" y="1005" width="10" height="60" as="geometry" />
        </mxCell>
        <mxCell id="I4OUeWfFcP3w6D2gxnNu-19" value="&lt;font face=&quot;Verdana&quot; style=&quot;font-size: 24px;&quot;&gt;sigla&lt;/font&gt;" style="text;html=1;align=center;verticalAlign=middle;whiteSpace=wrap;rounded=0;" vertex="1" parent="1">
          <mxGeometry x="90" y="1020" width="100" height="30" as="geometry" />
        </mxCell>
      </root>
    </mxGraphModel>
  </diagram>
</mxfile>
